<?xml version="1.0" encoding="utf-8"?>
<!-- Generator: Adobe Illustrator 22.1.0, SVG Export Plug-In . SVG Version: 6.00 Build 0)  -->
<svg version="1.1" id="Layer_1" xmlns="http://www.w3.org/2000/svg" xmlns:xlink="http://www.w3.org/1999/xlink" x="0px" y="0px"
	 viewBox="0 0 51.3 25.2" style="enable-background:new 0 0 51.3 25.2;" xml:space="preserve">
<style type="text/css">
	.st0{fill:#E6B91E;}
	.st1{fill-rule:evenodd;clip-rule:evenodd;fill:#010101;}
</style>
<g>
	<path class="st0" d="M48.3,0.2H3.1c-1.6,0-2.9,1.3-2.9,2.9v19.2c0,1.6,1.3,2.9,2.9,2.9h45.3c1.6,0,2.9-1.3,2.9-2.9V3.1
		C51.3,1.5,50,0.2,48.3,0.2L48.3,0.2z"/>
	<rect x="7.5" y="5.5" class="st1" width="3.8" height="14.6"/>
	<path class="st1" d="M19.4,5.5l-0.9,6.8L18,8.6c-0.2-1.2-0.3-2.2-0.5-3.1h-4.9V20h3.3l0-9.6l1.4,9.6h2.4l1.3-9.8l0,9.8h3.3V5.5
		H19.4z"/>
	<path class="st1" d="M30.2,20c0.9,0,1.6,0,2-0.1c0.4-0.1,0.8-0.3,1.1-0.5c0.3-0.2,0.5-0.6,0.6-1c0.1-0.4,0.2-1.3,0.2-2.6v-5.1
		c0-1.4-0.1-2.3-0.1-2.8c-0.1-0.5-0.3-0.9-0.6-1.3c-0.3-0.4-0.8-0.7-1.5-0.8c-0.6-0.2-1.7-0.3-3.5-0.3h-2.8V20H30.2z M30.2,8.1
		c0.1,0.1,0.2,0.2,0.3,0.4c0,0.2,0.1,0.6,0.1,1.3v5.6c0,1-0.1,1.6-0.2,1.8c-0.1,0.2-0.5,0.3-1,0.3V8C29.8,8,30.1,8,30.2,8.1z"/>
	<path class="st1" d="M35.5,5.5V20h3.4l0.2-0.9c0.3,0.4,0.6,0.6,1,0.8c0.4,0.2,0.9,0.3,1.4,0.3c0.6,0,1.1-0.2,1.5-0.5
		c0.4-0.3,0.7-0.7,0.8-1.1c0.1-0.4,0.2-1.1,0.2-2v-4.1c0-0.9,0-1.5-0.1-1.7c0-0.3-0.2-0.5-0.3-0.8c-0.2-0.3-0.5-0.5-0.8-0.7
		c-0.4-0.2-0.8-0.2-1.3-0.2c-0.4,0-1,0.1-1.4,0.3c-0.4,0.2-0.7,0.4-1,0.8V5.5H35.5z M40.4,16.5c0,0.7,0,1.2-0.1,1.3
		s-0.4,0.3-0.6,0.3c-0.2,0-0.4-0.1-0.5-0.3c-0.1-0.2-0.1-0.6-0.1-1.2v-3.9c0-0.7,0-1.1,0.1-1.2c0.1-0.2,0.2-0.2,0.4-0.2
		c0.2,0,0.5,0.1,0.6,0.3c0.1,0.2,0.1,0.6,0.1,1.2V16.5z"/>
</g>
</svg>
