<?xml version="1.0" encoding="UTF-8" standalone="no"?>
<!-- Created with Inkscape (http://www.inkscape.org/) -->
<svg id="svg3565" xmlns:rdf="http://www.w3.org/1999/02/22-rdf-syntax-ns#" xmlns="http://www.w3.org/2000/svg" height="140" viewBox="0 0 145 140" width="145" version="1.1" xmlns:cc="http://creativecommons.org/ns#" xmlns:dc="http://purl.org/dc/elements/1.1/">
 <metadata id="metadata3571">
  <rdf:RDF>
   <cc:Work rdf:about="">
    <dc:format>image/svg+xml</dc:format>
    <dc:type rdf:resource="http://purl.org/dc/dcmitype/StillImage"/>
    <dc:title/>
   </cc:Work>
  </rdf:RDF>
 </metadata>
 <path id="path3575" d="m47.4 35.342c-13.607-7.935-12.32-25.203 2.097-31.88 26.124-6.5314 29.117 13.78 22.652 30.412-6.5416 24.11 18.095 23.662 19.925 10.067 3.6048-18.412 19.394-26.695 31.67-16.359 12.598 12.135 7.0735 36.581-17.827 34.187-16.03-1.5447-19.552 19.585 0.83894 21.183 32.228 1.9146 42.491 22.167 31.041 35.865-15.994 15.15-37.692-4.4389-45.513-19.505-6.7999-9.3072-17.321 0.11036-13.423 6.5018 12.983 19.465 2.9229 31.229-10.906 30.621-13.369-0.85-20.96-9.06-13.214-29.15 3.897-12.482-8.595-15.387-16.569-5.45-11.708 19.61-28.866 13.68-33.977 4.19-3.2426-7.622-2.921-25.847 24.119-23.697 16.688 4.137 11.776-12.561-0.629-13.633-9.246-0.443-30.502-7.304-22.861-24.539 7.341-11.057 24.958-11.769 33.348 6.292 3.0371 4.2326 8.3614 11.042 18.037 5.0336 3.51-5.1979 1.2108-13.901-8.8089-20.135z" fill="#0fc755"/>
</svg>
